<svg width="24" height="24" viewBox="0 0 24 24" fill="none" xmlns="http://www.w3.org/2000/svg">
<path fill-rule="evenodd" clip-rule="evenodd" d="M12 0C5.37258 0 0 5.37258 0 12C0 18.6275 5.37258 24 12 24C18.6275 24 24 18.6275 24 12C24 5.37258 18.6275 0 12 0ZM7.53488 12C7.53488 9.53398 9.53398 7.53488 12 7.53488C13.2333 7.53488 14.3481 8.03344 15.1573 8.84268C15.5933 9.27862 16.3 9.27862 16.7359 8.84268C17.1719 8.40675 17.1719 7.69996 16.7359 7.26403C15.5251 6.05321 13.8492 5.30233 12 5.30233C8.30098 5.30233 5.30233 8.30098 5.30233 12C5.30233 15.699 8.30098 18.6977 12 18.6977C15.699 18.6977 18.6977 15.699 18.6977 12C18.6977 11.3835 18.1979 10.8837 17.5814 10.8837H12C11.3835 10.8837 10.8837 11.3835 10.8837 12C10.8837 12.6165 11.3835 13.1163 12 13.1163H16.3245C15.8287 15.0421 14.0805 16.4651 12 16.4651C9.53398 16.4651 7.53488 14.466 7.53488 12Z" fill="black"/>
</svg>
