<svg width="20" height="20" viewBox="0 0 20 20" fill="none" xmlns="http://www.w3.org/2000/svg">
<path fill-rule="evenodd" clip-rule="evenodd" d="M19.5306 18.4696L14.8365 13.7765C17.6629 10.3833 17.3204 5.36716 14.0591 2.38957C10.7978 -0.588013 5.77132 -0.473778 2.64865 2.64889C-0.474022 5.77157 -0.588258 10.798 2.38933 14.0594C5.36691 17.3207 10.383 17.6631 13.7762 14.8368L18.4694 19.5308C18.7624 19.8239 19.2375 19.8239 19.5306 19.5308C19.8237 19.2378 19.8237 18.7627 19.5306 18.4696ZM1.74998 8.50022C1.74998 4.7723 4.77206 1.75022 8.49998 1.75022C12.2279 1.75022 15.25 4.7723 15.25 8.50022C15.25 12.2281 12.2279 15.2502 8.49998 15.2502C4.77377 15.2461 1.75411 12.2264 1.74998 8.50022Z" fill="#4F964F"/>
</svg>
